<?xml version="1.0" encoding="utf-8" standalone="no"?><!DOCTYPE svg PUBLIC "-//W3C//DTD SVG 20010904//EN" "http://www.w3.org/TR/2001/REC-SVG-20010904/DTD/svg10.dtd"><svg xmlns="http://www.w3.org/2000/svg" width="392" height="174" xmlns:xlink="http://www.w3.org/1999/xlink"><source><![CDATA[updateDatabase->saveAll: ndzPilots.map(saveAll)
]]></source><desc></desc><defs><marker viewBox="0 0 5 5" markerWidth="5" markerHeight="5" orient="auto" refX="5" refY="2.5" id="markerArrowBlock"><path d="M 0 0 L 5 2.5 L 0 5 z"></path></marker><marker viewBox="0 0 9.6 16" markerWidth="4" markerHeight="16" orient="auto" refX="9.6" refY="8" id="markerArrowOpen"><path d="M 9.6,8 1.92,16 0,13.7 5.76,8 0,2.286 1.92,0 9.6,8 z"></path></marker></defs><g class="title"></g><g class="actor"><rect x="10" y="20" width="154.421875" height="38" stroke="#000000" fill="#ffffff" style="stroke-width: 2;"></rect><text x="20" y="44.5" style="font-size: 16px; font-family: &quot;Andale Mono&quot;, monospace;"><tspan x="20">updateDatabase</tspan></text></g><g class="actor"><rect x="10" y="116" width="154.421875" height="38" stroke="#000000" fill="#ffffff" style="stroke-width: 2;"></rect><text x="20" y="140.5" style="font-size: 16px; font-family: &quot;Andale Mono&quot;, monospace;"><tspan x="20">updateDatabase</tspan></text></g><line x1="87.2109375" x2="87.2109375" y1="58" y2="116" stroke="#000000" fill="none" style="stroke-width: 2;"></line><g class="actor"><rect x="274.83984375" y="20" width="87.2109375" height="38" stroke="#000000" fill="#ffffff" style="stroke-width: 2;"></rect><text x="284.83984375" y="44.5" style="font-size: 16px; font-family: &quot;Andale Mono&quot;, monospace;"><tspan x="284.83984375">saveAll</tspan></text></g><g class="actor"><rect x="274.83984375" y="116" width="87.2109375" height="38" stroke="#000000" fill="#ffffff" style="stroke-width: 2;"></rect><text x="284.83984375" y="140.5" style="font-size: 16px; font-family: &quot;Andale Mono&quot;, monospace;"><tspan x="284.83984375">saveAll</tspan></text></g><line x1="318.4453125" x2="318.4453125" y1="58" y2="116" stroke="#000000" fill="none" style="stroke-width: 2;"></line><g class="signal"><text x="97.2109375" y="88.5" style="font-size: 16px; font-family: &quot;Andale Mono&quot;, monospace;"><tspan x="97.2109375">ndzPilots.map(saveAll)</tspan></text><line x1="87.2109375" x2="318.4453125" y1="96" y2="96" stroke="#000000" fill="none" style="stroke-width: 2; marker-end: url(&quot;#markerArrowBlock&quot;);"></line></g></svg>